<?xml version="1.0" encoding="UTF-8" standalone="no"?>
<svg
   xmlns:dc="http://purl.org/dc/elements/1.1/"
   xmlns:cc="http://creativecommons.org/ns#"
   xmlns:rdf="http://www.w3.org/1999/02/22-rdf-syntax-ns#"
   xmlns:svg="http://www.w3.org/2000/svg"
   xmlns="http://www.w3.org/2000/svg"
   xmlns:sodipodi="http://sodipodi.sourceforge.net/DTD/sodipodi-0.dtd"
   xmlns:inkscape="http://www.inkscape.org/namespaces/inkscape"
   viewBox="0 0 512 512"
   id="svg3108"
   version="1.1"
   inkscape:version="0.48.4 r9939"
   width="100%"
   height="100%"
   sodipodi:docname="icon.svg"
   inkscape:export-filename="G:\downloads\jp-gravatar.png"
   inkscape:export-xdpi="90"
   inkscape:export-ydpi="90">
  <metadata
     id="metadata3156">
    <rdf:RDF>
      <cc:Work
         rdf:about="">
        <dc:format>image/svg+xml</dc:format>
        <dc:type
           rdf:resource="http://purl.org/dc/dcmitype/StillImage" />
        <dc:title />
      </cc:Work>
    </rdf:RDF>
  </metadata>
  <defs
     id="defs3154" />
  <sodipodi:namedview
     pagecolor="#ffffff"
     bordercolor="#666666"
     borderopacity="1"
     objecttolerance="10"
     gridtolerance="10"
     guidetolerance="10"
     inkscape:pageopacity="0"
     inkscape:pageshadow="2"
     inkscape:window-width="1366"
     inkscape:window-height="705"
     id="namedview3152"
     showgrid="false"
     showguides="true"
     inkscape:guide-bbox="true"
     inkscape:zoom="0.70710678"
     inkscape:cx="364.4628"
     inkscape:cy="274.33598"
     inkscape:window-x="-8"
     inkscape:window-y="-8"
     inkscape:window-maximized="1"
     inkscape:current-layer="g3112" />
  <g
     transform="matrix(16.184785,-9.34429,9.34429,16.184785,-32096.072,-31639.69)"
     id="g3112">
    <path
       style="fill:#4a9ac6;fill-opacity:1;stroke:none"
       d="M 373.8125 5.1875 C 335.18243 5.6908805 306.47283 18.632049 289 42.40625 L 340.84375 94.25 C 359.753 85.167017 380.04911 84.114415 398.78125 96.6875 C 410.27834 74.02024 413.87621 44.08996 408.5625 7.71875 C 396.21997 5.8775318 384.62892 5.0465535 373.8125 5.1875 z M 279 47.59375 L 142.875 183.75 L 232.09375 273.03125 L 274 231.09375 C 253.24131 198.70442 286.50159 128.26509 331.09375 99.71875 L 279 47.59375 z M 474.0625 102.9375 C 451.8443 102.92423 432.82848 106.93355 417.25 114.6875 C 430.85211 133.81112 429.97001 154.67565 420.65625 174.0625 L 471.21875 224.59375 C 501.63853 202.13445 514.48982 161.44051 506.3125 105.46875 C 494.91344 103.76811 484.16168 102.94353 474.0625 102.9375 z M 365.0625 105.9375 C 315.70032 104.2749 265.25564 192.65373 293.75 221.15625 C 328.16269 255.56969 449.85236 174.8954 394.9375 119.96875 C 385.49904 110.52822 375.30748 106.28257 365.0625 105.9375 z M 415.21875 183.8125 C 386.20718 229.17488 313.82618 262.82108 282.21875 239.84375 L 240.5625 281.5 L 329.84375 370.78125 L 466 234.59375 L 415.21875 183.8125 z M 158.5625 214.65625 C 129.11994 216.25376 105.67583 225.29936 88.90625 241.125 L 174.78125 326.96875 C 190.6233 310.18744 199.77177 286.85416 201.53125 257.625 L 158.59375 214.65625 L 158.5625 214.65625 z M 84.53125 259.8125 L 3.28125 341.03125 L 3.28125 369.65625 L 98.84375 274.125 L 84.53125 259.8125 z M 113.15625 288.4375 L 3.28125 398.28125 L 3.28125 426.90625 L 127.46875 302.75 L 113.15625 288.4375 z M 256.3125 312.4375 C 226.85223 314.02553 203.40313 323.01099 186.625 338.84375 L 272.5 424.71875 C 288.34289 407.93479 297.48874 384.60518 299.25 355.375 L 256.3125 312.4375 z M 141.75 317.0625 L 3.28125 455.53125 L 3.28125 484.15625 L 156.0625 331.375 L 141.75 317.0625 z M 182.25 357.53125 L 33 506.8125 L 61.625 506.8125 L 196.5625 371.84375 L 182.25 357.53125 z M 414.3125 380.34375 C 411.03578 380.33655 408.23735 381.48235 405.9375 383.78125 C 403.63749 386.08025 402.49864 388.88339 402.5 392.15625 L 402.5 433.53125 C 402.49901 436.84862 403.63804 439.65912 405.9375 441.9375 C 408.23651 444.21398 411.03562 445.33664 414.3125 445.34375 C 417.63158 445.34807 420.47557 444.21112 422.84375 441.9375 C 425.21006 439.66065 426.37563 436.87894 426.375 433.5625 L 426.375 405.96875 C 433.36208 408.44536 439.05923 412.71808 443.4375 418.84375 C 447.81499 424.96771 450.00015 431.88115 450 439.53125 C 450.00005 445.98787 448.40246 451.93523 445.21875 457.375 C 442.03955 462.82296 437.71117 467.07869 432.25 470.21875 C 426.78757 473.35738 420.81298 474.93716 414.3125 474.9375 C 409.49173 474.93699 404.87795 474.01364 400.5 472.15625 C 396.12189 470.29895 392.3488 467.78689 389.1875 464.625 C 386.0262 461.46311 383.54452 457.69138 381.6875 453.3125 C 379.82983 448.93399 378.87423 444.35045 378.875 439.53125 C 378.8741 434.75402 379.8305 430.16907 381.6875 425.8125 C 383.54543 421.45755 386.10204 417.66508 389.375 414.4375 C 391.58611 412.04956 392.68704 409.25984 392.6875 406.03125 C 392.68796 402.80266 391.58531 400.01839 389.375 397.71875 C 387.0751 395.41905 384.25691 394.28539 380.9375 394.28125 C 377.61826 394.27702 374.75989 395.4139 372.375 397.71875 C 366.97913 403.11288 362.78885 409.40843 359.78125 416.59375 C 356.77442 423.78078 355.28037 431.4372 355.28125 439.53125 C 355.2805 447.57876 356.81888 455.2747 359.9375 462.59375 C 363.05534 469.91109 367.27861 476.18532 372.5625 481.46875 C 377.84732 486.7538 384.13173 490.98569 391.40625 494.125 C 398.68155 497.26602 406.30769 498.84295 414.3125 498.84375 C 422.36076 498.84319 430.05887 497.26998 437.375 494.125 C 444.68987 490.97858 450.9563 486.75347 456.21875 481.46875 C 461.4812 476.18403 465.69431 469.88072 468.8125 462.5625 C 471.93052 455.24438 473.46894 447.58037 473.46875 439.53125 C 473.46876 431.52733 471.92987 423.8607 468.8125 416.5625 C 465.6951 409.26648 461.48093 402.963 456.21875 397.65625 C 450.95608 392.34978 444.69396 388.14922 437.375 385.03125 C 430.05588 381.91337 422.3617 380.34481 414.3125 380.34375 z M 210.875 386.15625 L 90.21875 506.8125 L 118.84375 506.8125 L 225.1875 400.46875 L 210.875 386.15625 z M 239.5 414.78125 L 147.46875 506.8125 L 176.09375 506.8125 L 253.8125 429.09375 L 239.5 414.78125 z "
       transform="matrix(0.04633982,0.02675431,-0.02675431,0.04633982,640.82818,2324.8856)"
       id="path3136" />
  </g>
</svg>
